<?xml version="1.0" encoding="UTF-8" standalone="no"?>
<svg
   xmlns:dc="http://purl.org/dc/elements/1.1/"
   xmlns:cc="http://creativecommons.org/ns#"
   xmlns:rdf="http://www.w3.org/1999/02/22-rdf-syntax-ns#"
   xmlns:svg="http://www.w3.org/2000/svg"
   xmlns="http://www.w3.org/2000/svg"
   xmlns:sodipodi="http://sodipodi.sourceforge.net/DTD/sodipodi-0.dtd"
   xmlns:inkscape="http://www.inkscape.org/namespaces/inkscape"
   inkscape:export-ydpi="96"
   inkscape:export-xdpi="96"
   inkscape:export-filename="/Users/kindalus/Google Drive/ZAFIR/Tecnologia/ADMINISTRAÇÃO E FINANÇAS/COMUNICAÇÃO E MARKETING/ESTACIONARIO/LOGO/Logo.png"
   sodipodi:docname="Logo.svg"
   inkscape:version="1.0 (4035a4f, 2020-05-01)"
   id="svg408"
   version="1.1"
   viewBox="0 0 57.15 31.75"
   height="120"
   width="216">
  <defs
     id="defs402" />
  <sodipodi:namedview
     units="px"
     inkscape:window-maximized="0"
     inkscape:window-y="23"
     inkscape:window-x="0"
     inkscape:window-height="855"
     inkscape:window-width="1252"
     showgrid="false"
     inkscape:document-rotation="0"
     inkscape:current-layer="layer1"
     inkscape:document-units="px"
     inkscape:cy="179.74269"
     inkscape:cx="191.98029"
     inkscape:zoom="0.98994949"
     inkscape:pageshadow="2"
     inkscape:pageopacity="0.0"
     borderopacity="1.0"
     bordercolor="#666666"
     pagecolor="#ffffff"
     id="base" />
  <metadata
     id="metadata405">
    <rdf:RDF>
      <cc:Work
         rdf:about="">
        <dc:format>image/svg+xml</dc:format>
        <dc:type
           rdf:resource="http://purl.org/dc/dcmitype/StillImage" />
        <dc:title></dc:title>
      </cc:Work>
    </rdf:RDF>
  </metadata>
  <g
     id="layer1"
     inkscape:groupmode="layer"
     inkscape:label="Layer 1">
    <path
       inkscape:export-ydpi="96"
       inkscape:export-xdpi="96"
       d="M 7.5547279,26.768993 C 1.5218749,22.207224 0.32560586,13.587804 4.8873749,7.5549518 9.4491449,1.5220988 18.067858,0.32547678 24.100711,4.8872458"
       style="fill:#ce2529;fill-opacity:1;fill-rule:nonzero;stroke:none;stroke-width:0.352777"
       id="path32" />
    <path
       inkscape:export-ydpi="96"
       inkscape:export-xdpi="96"
       d="M 24.029308,4.8304838 C 30.06216,9.3922528 31.258431,18.011672 26.696661,24.044525 22.134892,30.077379 13.516178,31.273999 7.4833249,26.71223"
       style="fill:#bd2024;fill-opacity:1;fill-rule:nonzero;stroke:none;stroke-width:0.352777"
       id="path36" />
    <path
       inkscape:export-ydpi="96"
       inkscape:export-xdpi="96"
       d="m 12.656458,10.911315 1.306336,2.677583 1.239309,2.539648 3.994502,-5.217231 z m 7.30885,10.188222 H 11.44255 l 3.416653,-4.489097 -3.059289,-6.280855 h 8.413044 l -7.754055,10.187869 h 7.506405 z"
       style="fill:#ffffff;fill-opacity:1;fill-rule:nonzero;stroke:none;stroke-width:0.352777"
       id="path40" />
    <path
       d="m 38.167617,10.329409 v 0.359128 l -3.71122,5.409141 h 3.763433 v 0.359128 h -4.261908 v -0.359128 l 3.71122,-5.409141 h -3.597275 v -0.359128 z"
       style="fill:#231f20;fill-opacity:1;fill-rule:nonzero;stroke:none;stroke-width:0.352777"
       id="path44" />
    <path
       d="m 40.150442,13.831328 h 1.873602 l -0.94615,-2.862791 z m 1.11125,-3.502024 2.03976,6.127749 h -0.419804 l -0.753181,-2.240844 h -2.101144 l -0.734483,2.240844 h -0.411692 l 2.013302,-6.127749 z"
       style="fill:#231f20;fill-opacity:1;fill-rule:nonzero;stroke:none;stroke-width:0.352777"
       id="path48" />
    <path
       d="m 47.2635,10.329409 v 0.376414 h -2.53012 v 2.136422 h 1.593495 l -0.16651,0.384528 H 44.73338 v 3.230033 h -0.394055 v -6.127397 z"
       style="fill:#231f20;fill-opacity:1;fill-rule:nonzero;stroke:none;stroke-width:0.352777"
       id="path52" />
    <path
       d="M 48.887158,16.457017 H 48.493106 V 10.32962 h 0.394052 z"
       style="fill:#231f20;fill-opacity:1;fill-rule:nonzero;stroke:none;stroke-width:0.352777"
       id="path54" />
    <path
       d="m 50.959481,13.831328 h 1.78541 c 1.12042,0 1.2259,-1.025172 1.2259,-1.628422 0,-0.998361 -0.47308,-1.496836 -1.25165,-1.496836 h -1.75966 z m 1.74237,-3.502024 c 1.17263,0 1.66299,0.788105 1.66299,1.873602 0,0.57785 -0.079,1.514475 -0.89253,1.873603 l 0.90065,2.380544 h -0.40217 l -0.87524,-2.258483 c -0.0963,0.0081 -0.21026,0.01764 -0.31468,0.01764 h -1.82139 v 2.240844 h -0.39405 v -6.12775 z"
       style="fill:#231f20;fill-opacity:1;fill-rule:nonzero;stroke:none;stroke-width:0.352777"
       id="path58" />
    <path
       d="m 35.45839,18.027091 v 0.178858 h -0.791634 v 2.885017 h -0.197553 v -2.885017 h -0.770467 v -0.178858 z"
       style="fill:#939598;fill-opacity:1;fill-rule:nonzero;stroke:none;stroke-width:0.352777"
       id="path62" />
    <path
       d="m 37.334286,18.027091 v 0.183797 h -1.264709 v 1.072444 h 0.883357 l -0.06491,0.191912 h -0.818447 v 1.436511 h 1.255538 v 0.179211 h -1.453092 v -3.063875 z"
       style="fill:#939598;fill-opacity:1;fill-rule:nonzero;stroke:none;stroke-width:0.352777"
       id="path66" />
    <path
       d="m 38.050214,20.280706 c 0,0.617008 0.473075,0.844903 1.340202,0.542925 l 0.04304,0.166158 c -0.691798,0.262467 -1.579737,0.249767 -1.579737,-0.699911 v -1.405114 c 0,-0.476603 0.148871,-0.651933 0.380294,-0.79128 0.284691,-0.16757 0.757766,-0.136173 1.090083,0.03457 l -0.06174,0.1397 c -0.148518,-0.06174 -0.327729,-0.104775 -0.50306,-0.104775 -0.245181,0 -0.709083,0.06526 -0.709083,0.682272 z"
       style="fill:#939598;fill-opacity:1;fill-rule:nonzero;stroke:none;stroke-width:0.352777"
       id="path70" />
    <path
       d="m 40.145785,18.027091 1.763183,2.704747 v -2.704747 h 0.192969 v 3.063875 h -0.192969 l -1.763183,-2.709334 v 2.709334 h -0.197554 v -3.063875 z"
       style="fill:#939598;fill-opacity:1;fill-rule:nonzero;stroke:none;stroke-width:0.352777"
       id="path74" />
    <path
       d="m 42.966595,20.280706 c 0,0.468489 0.345369,0.669572 0.721784,0.669572 0.379941,0 0.726368,-0.179211 0.726368,-0.6731 v -1.436511 c 0,-0.454378 -0.284691,-0.694972 -0.726368,-0.694972 -0.441677,0 -0.721784,0.240594 -0.721784,0.694972 z m -0.197553,-1.408642 c 0,-0.617008 0.367239,-0.914753 0.927451,-0.914753 0.587021,0 0.911225,0.354542 0.911225,0.919339 v 1.404056 c 0,0.643819 -0.482248,0.857603 -0.914754,0.857603 -0.433562,0 -0.923922,-0.213784 -0.923922,-0.857603 z"
       style="fill:#939598;fill-opacity:1;fill-rule:nonzero;stroke:none;stroke-width:0.352777"
       id="path78" />
    <path
       d="m 45.471281,18.027091 v 2.884664 h 1.381832 v 0.179211 h -1.579385 v -3.063875 z"
       style="fill:#939598;fill-opacity:1;fill-rule:nonzero;stroke:none;stroke-width:0.352777"
       id="path82" />
    <path
       d="m 47.391347,20.280706 c 0,0.468489 0.345368,0.669572 0.721783,0.669572 0.379942,0 0.726369,-0.179211 0.726369,-0.6731 v -1.436511 c 0,-0.454378 -0.284692,-0.694972 -0.726369,-0.694972 -0.441677,0 -0.721783,0.240594 -0.721783,0.694972 z m -0.197554,-1.408642 c 0,-0.617008 0.367239,-0.914753 0.927452,-0.914753 0.58702,0 0.911225,0.354542 0.911225,0.919339 v 1.404056 c 0,0.643819 -0.482248,0.857603 -0.914755,0.857603 -0.433562,0 -0.923922,-0.213784 -0.923922,-0.857603 z"
       style="fill:#939598;fill-opacity:1;fill-rule:nonzero;stroke:none;stroke-width:0.352777"
       id="path86" />
    <path
       d="m 49.822791,20.272591 c 0,0.415925 0.2974,0.674158 0.72637,0.674158 0.45897,0 0.68686,-0.297744 0.68686,-0.666044 v -0.310444 h -0.34643 l -0.0695,-0.19297 h 0.60431 v 1.313392 h -0.14887 l -0.0441,-0.240595 c -0.17074,0.227895 -0.45085,0.285045 -0.68227,0.285045 -0.46038,0 -0.92392,-0.25012 -0.92392,-0.871714 V 18.88935 c 0,-0.428625 0.14887,-0.651934 0.38135,-0.792692 0.28328,-0.166158 0.74824,-0.139347 1.08902,0.03492 l -0.0571,0.140758 c -0.14887,-0.06174 -0.31961,-0.104775 -0.48577,-0.109361 -0.2533,0 -0.7299,0.06174 -0.7299,0.709083 z"
       style="fill:#939598;fill-opacity:1;fill-rule:nonzero;stroke:none;stroke-width:0.352777"
       id="path90" />
    <path
       d="m 52.293931,21.090753 h -0.19755 v -3.063875 h 0.19755 z"
       style="fill:#939598;fill-opacity:1;fill-rule:nonzero;stroke:none;stroke-width:0.352777"
       id="path92" />
    <path
       d="m 53.356071,19.777468 h 0.93663 l -0.47272,-1.430866 z m 0.55563,-1.750483 1.02023,3.063875 h -0.21025 l -0.37642,-1.120422 h -1.05092 l -0.36724,1.120422 h -0.20567 l 1.00647,-3.063875 z"
       style="fill:#939598;fill-opacity:1;fill-rule:nonzero;stroke:none;stroke-width:0.352777"
       id="path96" />
  </g>
</svg>
